<?xml version="1.0" standalone="no"?>
<svg xmlns:xlink="http://www.w3.org/1999/xlink" id="wave" style="transform:rotate(180deg); transition: 0.3s" viewBox="0 0 1440 380" version="1.1" xmlns="http://www.w3.org/2000/svg"><defs><linearGradient id="sw-gradient-0" x1="0" x2="0" y1="1" y2="0"><stop stop-color="rgba(249, 249, 233, 1)" offset="0%"/><stop stop-color="rgba(255, 196.05, 93.663, 1)" offset="100%"/></linearGradient></defs><path style="transform:translate(0, 0px); opacity:1" fill="url(#sw-gradient-0)" d="M0,76L80,120.3C160,165,320,253,480,259.7C640,266,800,190,960,177.3C1120,165,1280,215,1440,215.3C1600,215,1760,165,1920,158.3C2080,152,2240,190,2400,221.7C2560,253,2720,279,2880,285C3040,291,3200,279,3360,266C3520,253,3680,241,3840,253.3C4000,266,4160,304,4320,272.3C4480,241,4640,139,4800,126.7C4960,114,5120,190,5280,209C5440,228,5600,190,5760,183.7C5920,177,6080,203,6240,221.7C6400,241,6560,253,6720,266C6880,279,7040,291,7200,304C7360,317,7520,329,7680,297.7C7840,266,8000,190,8160,190C8320,190,8480,266,8640,278.7C8800,291,8960,241,9120,190C9280,139,9440,89,9600,114C9760,139,9920,241,10080,285C10240,329,10400,317,10560,291.3C10720,266,10880,228,11040,209C11200,190,11360,190,11440,190L11520,190L11520,380L11440,380C11360,380,11200,380,11040,380C10880,380,10720,380,10560,380C10400,380,10240,380,10080,380C9920,380,9760,380,9600,380C9440,380,9280,380,9120,380C8960,380,8800,380,8640,380C8480,380,8320,380,8160,380C8000,380,7840,380,7680,380C7520,380,7360,380,7200,380C7040,380,6880,380,6720,380C6560,380,6400,380,6240,380C6080,380,5920,380,5760,380C5600,380,5440,380,5280,380C5120,380,4960,380,4800,380C4640,380,4480,380,4320,380C4160,380,4000,380,3840,380C3680,380,3520,380,3360,380C3200,380,3040,380,2880,380C2720,380,2560,380,2400,380C2240,380,2080,380,1920,380C1760,380,1600,380,1440,380C1280,380,1120,380,960,380C800,380,640,380,480,380C320,380,160,380,80,380L0,380Z"/></svg>